<svg xmlns="http://www.w3.org/2000/svg"  viewBox="0 0 50 50" width="50px" height="50px"><path d="M 13 4 C 8.037 4 4 8.037 4 13 L 4 15.580078 C 4.964 16.199078 7.6930625 17.779578 12.164062 19.017578 C 12.198063 18.796578 12.23025 18.573422 12.28125 18.357422 C 13.44825 12.388422 18.805 8 25 8 C 28.47 8 31.734406 9.3525937 34.191406 11.808594 C 36.172406 13.790594 37.419984 16.301578 37.833984 19.017578 C 42.306984 17.779578 45.036047 16.198078 45.998047 15.580078 L 45.998047 13 C 45.998047 8.037 41.961047 4 36.998047 4 L 13 4 z M 25 10 C 19.573 10 14.895813 14.039125 14.132812 19.328125 C 14.115813 19.407125 14.098797 19.501281 14.091797 19.613281 C 14.030797 20.062281 14 20.53 14 21 L 14 38.589844 C 10.62418 40.800544 9.0000444 43.561933 8.8613281 43.804688 A 1.0001 1.0001 0 0 0 9.3203125 45.212891 C 10.441839 45.715218 11.691097 46 13 46 L 29 46 L 37 46 C 38.854 46 40.631719 45.437953 42.136719 44.376953 C 42.545719 44.088953 42.678266 43.543609 42.447266 43.099609 C 42.363266 42.937609 40.399 39.220453 36 36.439453 L 36 21 C 36 20.471 35.958906 19.930484 35.878906 19.396484 C 35.533906 17.043484 34.462344 14.908656 32.777344 13.222656 C 30.698344 11.144656 27.937 10 25 10 z M 22.5 15 C 23.965 15 25.349625 15.571516 26.390625 16.603516 C 27.428625 17.650516 28 19.035 28 20.5 L 28 26.5 C 28 29.54961 25.54961 32 22.5 32 C 22.071243 32 21.655805 31.949411 21.255859 31.857422 C 21.246015 31.854796 21.238491 31.848042 21.228516 31.845703 C 18.738516 31.265703 17 29.067 17 26.5 L 17 20.5 C 17 20.311 17.008391 20.111594 17.025391 19.933594 C 17.317391 17.120594 19.671 15 22.5 15 z M 4 17.916016 L 4 27.802734 C 4.95 28.413734 7.623 29.961359 12 31.193359 L 12 21.058594 C 8.209 20.050594 5.548 18.785016 4 17.916016 z M 46 17.916016 C 44.452 18.785016 41.791 20.050594 38 21.058594 L 38 31.193359 C 42.377 29.962359 45.05 28.414734 46 27.802734 L 46 17.916016 z M 19.353516 20.867188 C 18.641516 20.881187 18.130906 21.187391 17.628906 21.525391 C 17.456906 21.642391 17.410391 21.874875 17.525391 22.046875 C 17.599391 22.154875 17.717891 22.212891 17.837891 22.212891 C 17.909891 22.212891 17.983828 22.191437 18.048828 22.148438 C 18.470828 21.864438 18.860141 21.628187 19.369141 21.617188 C 19.516719 21.610003 19.639112 21.622304 19.753906 21.644531 A 0.556 0.556 0 0 0 20 22.699219 A 0.556 0.556 0 0 0 20.556641 22.132812 C 20.705444 22.241905 20.91132 22.232048 21.042969 22.097656 C 21.186969 21.949656 21.183156 21.712359 21.035156 21.568359 C 20.495156 21.044359 20.021516 20.876188 19.353516 20.867188 z M 24.730469 20.869141 C 24.049469 20.876141 23.587875 21.043359 23.046875 21.568359 C 22.897875 21.711359 22.894063 21.951609 23.039062 22.099609 C 23.182063 22.247609 23.420313 22.251469 23.570312 22.105469 C 23.969312 21.717469 24.216844 21.592141 24.714844 21.619141 C 24.817776 21.621167 24.913313 21.637147 25.007812 21.65625 A 0.556 0.556 0 0 0 25.277344 22.699219 A 0.556 0.556 0 0 0 25.822266 22.023438 C 25.892965 22.068043 25.963292 22.100188 26.035156 22.148438 C 26.099156 22.190437 26.172141 22.212891 26.244141 22.212891 C 26.364141 22.212891 26.484594 22.152875 26.558594 22.046875 C 26.673594 21.874875 26.627078 21.640391 26.455078 21.525391 C 25.952078 21.187391 25.440469 20.884141 24.730469 20.869141 z M 20.277344 26.03125 C 20.277344 26.03125 21.016359 27.142578 21.943359 27.142578 C 22.817359 27.142578 23.611328 26.03125 23.611328 26.03125 C 23.611328 26.03125 22.610359 26.310547 21.943359 26.310547 C 21.243359 26.310547 20.277344 26.03125 20.277344 26.03125 z M 23.712891 28.128906 C 23.664875 28.136063 23.617719 28.153188 23.574219 28.179688 C 23.079219 28.481688 22.509594 28.648047 21.933594 28.623047 C 21.401594 28.612047 20.887328 28.4575 20.486328 28.1875 C 20.314328 28.0725 20.079844 28.116063 19.964844 28.289062 C 19.849844 28.461062 19.896359 28.695547 20.068359 28.810547 C 20.588359 29.159547 21.245922 29.359047 21.919922 29.373047 C 21.945922 29.373047 21.971094 29.375 21.996094 29.375 C 22.689094 29.375 23.368844 29.184313 23.964844 28.820312 C 24.141844 28.711312 24.196844 28.481687 24.089844 28.304688 C 24.008094 28.171188 23.856938 28.107437 23.712891 28.128906 z M 4 30.138672 L 4 37 C 4 39.665 5.1705781 42.055078 7.0175781 43.705078 C 7.0535781 43.327078 7.1616094 42.950703 7.3496094 42.595703 C 7.5136094 42.286703 8.915 39.766047 12 37.498047 L 12 33.279297 C 8.209 32.271297 5.548 31.007672 4 30.138672 z M 46 30.138672 C 44.452 31.007672 41.791 32.271297 38 33.279297 L 38 35.367188 C 42.124 38.262188 43.589953 41.429688 43.751953 41.804688 C 43.875953 42.090688 43.93675 42.3885 43.96875 42.6875 C 45.23775 41.1365 46 39.156 46 37 L 46 30.138672 z M 28 31.578125 L 28 44 L 13 44 C 12.439952 44 11.949784 43.787235 11.427734 43.662109 C 12.151601 42.677572 13.314254 41.309194 15.517578 39.974609 A 1.0001 1.0001 0 0 0 15.519531 39.974609 C 17.219531 38.943609 19.111625 38.276234 21.140625 37.990234 C 21.633625 37.921234 22 37.498 22 37 L 22 33.970703 C 22.166381 33.981783 22.331181 34 22.5 34 C 24.672212 34 26.628094 33.062593 28 31.578125 z"/></svg>